PathFileType	4	(X/Y/Z)	C:\Users\Basilio\Documents\Thesis Gigler\squatting_fais\c3dfiles\040\SLS_pre_front1\markers_experimental.trc
DataRate	CameraRate	NumFrames	NumMarkers	Units	OrigDataRate	OrigDataStartFrame	OrigNumFrames
200.000000	200.000000	4	62	mm	200.000000	564	1129
Frame#	Time	FHD			LBHD			RBHD			C7			T10			CLAV			LSHO			LUUPA			LMUPA			LDUPA			LLEP			LMEP			LRAD			LUL			LRFIN			RSHO			RUPA1			RMUPA			RDUPA			RLEP			RMEP			RRAD			RUL			RUFIN			LASI			RASI			USACR			LSACR			RSACR			LTHI1			LTHI2			LTHI3			LTHI4			LLFC			LMFC			LTIB1			LTIB2			LTIB3			LTIB4			LLMAL			LMMAL			LHEE			LMT1			LMT2			LMT5			RTHI			RTHI2			RTHI3			RTHI4			RLFC			RMFC			RTIB1			RTIB2			RTIB3			RTIB4			RLMAL			RMMAL			RHEE			RMT1			RMT2			RMT5			*61			
		X1	Y1	Z1	X2	Y2	Z2	X3	Y3	Z3	X4	Y4	Z4	X5	Y5	Z5	X6	Y6	Z6	X7	Y7	Z7	X8	Y8	Z8	X9	Y9	Z9	X10	Y10	Z10	X11	Y11	Z11	X12	Y12	Z12	X13	Y13	Z13	X14	Y14	Z14	X15	Y15	Z15	X16	Y16	Z16	X17	Y17	Z17	X18	Y18	Z18	X19	Y19	Z19	X20	Y20	Z20	X21	Y21	Z21	X22	Y22	Z22	X23	Y23	Z23	X24	Y24	Z24	X25	Y25	Z25	X26	Y26	Z26	X27	Y27	Z27	X28	Y28	Z28	X29	Y29	Z29	X30	Y30	Z30	X31	Y31	Z31	X32	Y32	Z32	X33	Y33	Z33	X34	Y34	Z34	X35	Y35	Z35	X36	Y36	Z36	X37	Y37	Z37	X38	Y38	Z38	X39	Y39	Z39	X40	Y40	Z40	X41	Y41	Z41	X42	Y42	Z42	X43	Y43	Z43	X44	Y44	Z44	X45	Y45	Z45	X46	Y46	Z46	X47	Y47	Z47	X48	Y48	Z48	X49	Y49	Z49	X50	Y50	Z50	X51	Y51	Z51	X52	Y52	Z52	X53	Y53	Z53	X54	Y54	Z54	X55	Y55	Z55	X56	Y56	Z56	X57	Y57	Z57	X58	Y58	Z58	X59	Y59	Z59	X60	Y60	Z60	X61	Y61	Z61	X62	Y62	Z62	

565	2.82	-139.2405700683594	1474.099975585938	-1128.269409179688	-259.7174377441407	1416.687255859375	-1173.921752929688	-312.6374206542969	1370.830688476563	-1044.284301757813	-320.6732788085938	1282.5791015625	-1098.837890625	-478.2200317382814	1020.107666015625	-1081.442016601563	-217.2477722167969	1186.344360351563	-1111.436279296875	-252.2823791503907	1274.609375	-1237.571166992188	-103.3468627929688	1233.099731445313	-1320.173095703125	-72.38513183593751	1242.280883789063	-1281.907592773438	-35.4033317565918	1218.821899414063	-1324.190795898438	22.29443359375	1190.311889648438	-1325.947387695313	8.980449676513674	1134.613403320313	-1295.328979492188	273.5535583496094	1195.005004882813	-1190.6279296875	300.5957946777344	1205.6875	-1262.90234375	358.4216003417969	1215.133422851563	-1164.497680664063	-224.8607940673829	1249.015380859375	-974.731384277344	-76.83126068115236	1181.3740234375	-900.861755371094	-47.75614547729493	1204.184448242188	-932.3728637695315	-8.443165779113771	1166.230834960938	-906.4359130859377	53.17169570922853	1156.858032226563	-919.6201782226565	40.94641494750977	1100.180541992188	-966.8646240234377	302.6403808593751	1205.90576171875	-1071.74169921875	321.3683776855469	1190.848266601563	-999.2449340820315	394.2476196289064	1227.142700195313	-1078.36572265625	-364.8869018554688	810.234558105469	-1165.675170898438	-362.7354431152344	834.1531982421877	-948.6839599609377	-542.2093505859376	865.1262817382815	-1054.122192382813	-554.0170898437501	831.6271972656252	-1077.9921875	-553.4099731445314	838.2310791015627	-1023.065795898438	-309.9182434082032	580.0304565429689	-1208.896240234375	-225.9799499511719	563.4647216796876	-1217.627685546875	-198.6623687744141	601.1582031250001	-1221.986450195313	-197.1086578369141	514.5642089843751	-1198.583129882813	-94.7559051513672	449.8554077148439	-1181.739135742188	-107.9876022338867	454.1709899902345	-1060.248779296875	-149.4783782958985	254.0050964355469	-1103.313232421875	-225.8733367919922	250.373275756836	-1151.301635742188	-193.5821685791016	227.7006835937501	-1128.58984375	-235.1123962402344	164.7025146484375	-1083.552124023438	-341.7581176757813	123.5334548950196	-1101.637329101563	-305.0822448730469	135.1721649169922	-1016.077697753906	-412.6502075195314	96.63105773925784	-1045.88623046875	-198.7234039306641	53.5978240966797	-1045.983154296875	-203.728256225586	53.09975433349611	-1092.901733398438	-260.4976196289063	42.14727401733399	-1135.681030273438	-277.5087280273438	626.9561157226564	-860.6267089843752	-216.3577575683594	607.8771972656251	-872.7766113281252	-193.0958251953126	631.0904541015626	-881.039978027344	-185.0656280517578	530.8985595703126	-879.6811523437502	-86.28450775146486	438.7390747070314	-893.234069824219	-83.8851776123047	432.2379150390626	-1029.071899414063	80.88797760009767	347.1834716796876	-922.5534667968752	89.6885452270508	241.6310424804688	-896.1795043945315	123.3914260864258	271.4668273925782	-908.8331298828127	167.4765625	252.6124725341797	-942.6848754882815	219.2661437988282	136.2835540771485	-920.8440551757815	216.413558959961	159.6063232421875	-1008.125854492188	210.2080535888672	55.24713516235353	-972.2718505859377	361.7975769042969	218.5015716552735	-997.952575683594	360.1009521484376	219.4108428955079	-957.8287353515627	354.8906555175782	171.4734497070313	-905.2903442382815	nan	nan	nan	
566	2.825	-138.6531372070313	1472.607543945313	-1128.070068359375	-258.8323974609376	1415.390747070313	-1173.897705078125	-311.8725585937501	1369.372924804688	-1044.411254882813	-319.6924133300782	1281.31298828125	-1099.061279296875	-478.004608154297	1019.122436523438	-1081.529296875	-216.8109130859376	1184.659790039063	-1111.487060546875	-251.5007934570313	1272.975830078125	-1237.612426757813	-102.5125427246094	1231.805053710938	-1320.183471679688	-71.94648742675783	1241.309448242188	-1281.958251953125	-34.43378448486329	1217.57373046875	-1324.108154296875	22.96288299560547	1189.39208984375	-1326.08837890625	9.621854782104494	1133.870361328125	-1295.248657226563	276.3805236816407	1194.592529296875	-1190.665161132813	301.7205200195313	1204.935913085938	-1263.22802734375	359.3477478027344	1214.249389648438	-1164.784057617188	-224.0937500000001	1247.68798828125	-975.0281982421877	-76.25974273681642	1179.533813476563	-901.3048095703127	-47.15246582031251	1203.11572265625	-932.4157714843752	-7.827220916748049	1164.795043945313	-906.3651123046877	53.69927978515626	1156.523681640625	-919.7925415039065	41.73589706420899	1098.969482421875	-966.8648071289065	303.4705200195313	1204.945678710938	-1071.556274414063	321.9961853027344	1189.519775390625	-998.928161621094	394.8931884765626	1226.366577148438	-1078.108520507813	-365.0709838867188	809.3994140625002	-1165.58203125	-362.7343444824219	833.1292114257815	-948.5764770507815	-542.3607788085939	864.222595214844	-1054.15869140625	-554.2371215820314	830.7581787109377	-1077.97802734375	-553.4642944335939	837.2539672851565	-1023.171447753906	-309.6655883789063	579.3273315429689	-1209.364379882813	-225.7369079589844	562.6907958984376	-1218.028686523438	-198.4410705566407	600.5205078125001	-1222.399169921875	-196.7090301513672	513.8119506835939	-1199.05126953125	-94.40049743652345	449.5323791503907	-1182.222778320313	-107.5498886108399	453.6163024902345	-1060.669067382813	-149.0042877197266	253.5193481445313	-1103.797607421875	-225.6372222900391	250.2677917480469	-1151.59521484375	-193.4351654052735	227.3833618164063	-1128.987182617188	-234.9179382324219	164.1213989257813	-1084.125366210938	-341.6203308105469	123.5475234985352	-1101.652587890625	-305.0354309082032	134.9923553466797	-1015.911804199219	-412.6284790039064	96.5949630737305	-1045.932250976563	-198.7892761230469	53.63682937622072	-1046.021118164063	-203.7700958251954	53.03702545166017	-1092.989135742188	-260.5733642578126	42.00393295288087	-1135.642944335938	-277.4248962402344	626.1223144531251	-860.8494262695315	-215.9766540527344	606.9690551757814	-873.2026977539065	-193.5019073486329	630.0510864257814	-881.8415527343752	-184.6699676513672	530.4310302734376	-880.007507324219	-85.64479827880861	438.132781982422	-893.6918945312502	-83.83880615234376	431.8448486328126	-1029.540649414063	81.88100433349611	346.5921020507813	-923.6072387695315	90.47669982910158	242.0276641845704	-896.9307861328127	124.1668243408203	271.6389160156251	-909.5720214843752	168.2813415527344	252.9254760742188	-943.4192504882815	220.7712707519532	136.3708801269532	-922.2176513671877	216.6723175048829	158.5833892822266	-1009.085632324219	211.5644531250001	55.41088867187501	-973.1176757812502	362.6624755859376	218.9417724609376	-998.7011718750002	361.1391296386719	219.8488006591797	-958.6961669921877	355.5604858398438	172.0672912597657	-906.247497558594	nan	nan	nan	
567	2.83	-137.3692016601563	1471.328979492188	-1128.094604492188	-257.8887023925782	1413.909057617188	-1173.858032226563	-310.9253845214844	1367.68310546875	-1044.464599609375	-319.0058288574219	1279.944213867188	-1099.279052734375	-477.5739746093751	1018.343444824219	-1081.65771484375	-215.8723602294922	1183.389404296875	-1111.703979492188	-250.608627319336	1271.750366210938	-1237.609497070313	-101.5970687866211	1230.801391601563	-1320.278198242188	-71.14609527587892	1240.10400390625	-1281.902099609375	-33.64232635498048	1216.5185546875	-1324.213989257813	23.93638038635254	1188.197143554688	-1326.180053710938	10.91649627685547	1132.388427734375	-1295.408447265625	276.8074645996094	1193.671264648438	-1190.856323242188	302.3034362792969	1204.130249023438	-1263.459594726563	360.4451599121094	1213.2421875	-1165.123168945313	-223.580307006836	1246.660522460938	-975.2591552734377	-75.5402297973633	1179.083618164063	-900.976501464844	-46.59166717529298	1202.058349609375	-932.390563964844	-7.049271106719972	1164.310668945313	-906.2902832031252	54.19391250610353	1155.630615234375	-919.7161254882815	42.59013366699219	1097.950561523438	-966.9174804687502	304.2827148437501	1203.531127929688	-1071.441040039063	323.0536804199219	1188.509643554688	-998.9688110351565	395.8368225097657	1225.09130859375	-1077.818969726563	-365.2793884277344	808.5091552734377	-1165.609375	-363.0438232421876	832.291931152344	-948.502624511719	-542.4241943359376	863.2792968750002	-1054.339599609375	-554.2946166992189	829.950866699219	-1078.148071289063	-553.5670166015626	836.2934570312502	-1023.396728515625	-309.5042114257813	578.5676269531251	-1209.74560546875	-225.8136291503907	562.3284912109376	-1218.440551757813	-198.4566040039063	600.0391235351564	-1222.765625	-196.5930480957032	513.3927612304689	-1199.417236328125	-94.10786437988283	448.7240600585939	-1182.680419921875	-107.3957748413086	452.912322998047	-1061.11572265625	-149.0154418945313	253.4951477050782	-1103.959106445313	-225.5429229736329	250.1858367919922	-1151.798950195313	-193.4523468017579	227.4149169921876	-1129.21142578125	-234.8746643066407	163.9642486572266	-1084.300170898438	-341.6164550781251	123.5756378173828	-1101.778076171875	-304.8930358886719	135.1031646728516	-1016.169921875	-412.6809387207032	96.65912628173831	-1045.980834960938	-198.7760314941407	53.57220458984376	-1046.052734375	-203.7545318603516	53.01259613037111	-1093.036499023438	-260.5436706542969	41.91862487792969	-1135.714965820313	-277.6121826171876	625.0252685546876	-861.2718505859377	-215.7527465820313	605.5613403320314	-873.1365966796877	-192.5412139892579	629.7175292968751	-881.432312011719	-184.5127105712891	529.8405151367189	-880.161804199219	-85.42625427246095	437.5595703125001	-893.9643554687502	-83.43074035644533	431.3983459472657	-1030.062133789063	82.42633056640626	346.6982116699219	-924.1775512695315	91.51308441162111	241.3391876220704	-897.7010498046877	124.7096557617188	271.5365905761719	-909.9351196289065	169.1597442626953	253.2214965820313	-944.2490234375002	221.6006774902344	136.6045837402344	-922.7745361328127	218.4265441894532	160.0896606445313	-1009.895690917969	213.2640380859376	56.32912445068361	-973.8688964843752	363.7318725585938	219.5219421386719	-999.6038818359377	361.6224670410157	220.3042297363282	-959.5073242187502	356.6903686523438	172.640853881836	-907.355407714844	nan	nan	nan	
568	2.835	-135.191162109375	1469.35546875	-1127.77783203125	-257.1684570312501	1412.553100585938	-1173.907348632813	-310.1731567382813	1366.300537109375	-1044.509887695313	-318.3651123046876	1279.125	-1099.46044921875	-477.3860473632814	1017.5126953125	-1081.765625	-215.3335418701172	1181.569946289063	-1111.742919921875	-249.7449035644532	1270.321655273438	-1237.733764648438	-100.7776947021485	1229.3544921875	-1320.341674804688	-70.30163574218751	1238.901611328125	-1282.046264648438	-32.7605209350586	1215.189819335938	-1324.25048828125	25.12823867797852	1186.921752929688	-1326.026245117188	11.66392040252686	1131.487426757813	-1295.463745117188	275.9723510742188	1191.399536132813	-1191.3203125	303.0373229980469	1203.00634765625	-1263.536010742188	361.0833129882813	1212.512451171875	-1165.134033203125	-222.3923645019532	1245.630126953125	-975.680603027344	-74.84185028076173	1178.630126953125	-901.161804199219	-46.01559066772462	1200.82958984375	-932.3134765625002	-6.236857891082765	1163.077880859375	-906.4667968750002	55.06684875488283	1154.239868164063	-919.7423095703127	43.05976867675782	1097.022705078125	-966.2784423828127	305.1088562011719	1202.307983398438	-1071.278564453125	323.1068725585938	1187.522216796875	-999.0630493164065	396.4365844726564	1224.506591796875	-1077.538208007813	-365.3657836914063	807.5703735351565	-1165.80810546875	-363.1970214843751	830.943298339844	-948.525085449219	-542.3838500976564	862.3106689453127	-1054.5498046875	-554.4012451171876	828.9443969726565	-1078.244262695313	-553.6959228515626	835.3344726562502	-1023.394653320313	-309.5707702636719	577.8642578125001	-1209.85888671875	-226.0389251708985	561.9528198242189	-1218.318237304688	-198.5464630126954	599.6682128906251	-1223.22265625	-196.5364990234376	512.8403930664064	-1200.03125	-93.8734817504883	448.3231201171876	-1183.099731445313	-107.0014190673828	452.4893493652345	-1061.582275390625	-149.0169372558594	253.4801788330079	-1104.207153320313	-225.3379364013672	250.0486755371094	-1152.133422851563	-193.4597473144532	227.4234161376954	-1129.460205078125	-234.9165039062501	164.0424194335938	-1084.432983398438	-341.5433654785157	123.5230255126953	-1101.930786132813	-304.9182739257813	135.1264953613282	-1016.366027832031	-412.6771850585939	96.73646545410159	-1046.020141601563	-198.8114013671876	53.59441375732423	-1046.10791015625	-203.8301086425782	52.97802734375001	-1093.050537109375	-260.5647888183594	41.78313827514649	-1135.72021484375	-277.4801330566407	624.2509155273439	-861.3479003906252	-215.825912475586	605.0719604492189	-873.3245849609377	-192.6469726562501	629.1798095703126	-881.396667480469	-184.3135528564453	528.9897460937501	-880.5305175781252	-85.0435256958008	437.3484191894532	-894.3868408203127	-83.34081268310548	431.1125488281251	-1030.470092773438	82.7755584716797	346.5568847656251	-924.7100830078127	92.09403228759767	241.4754180908204	-898.472595214844	125.8437423706055	271.5692749023438	-910.8116455078127	169.7823028564453	253.2652740478516	-944.8148193359377	222.7819519042969	137.275634765625	-923.5693969726565	219.5087127685547	160.1498260498047	-1010.706420898438	214.2711486816407	56.69904708862306	-974.6340942382815	364.8219909667969	220.2339172363282	-1000.668212890625	361.9788513183594	221.0107879638672	-960.6020507812502	357.7556152343751	173.1737823486328	-908.3691406250002	nan	nan	nan	
